<svg width="323" height="41" viewBox="0 0 323 41" fill="none" xmlns="http://www.w3.org/2000/svg">
<path d="M0.189211 19.8845C0.673815 16.1701 2.19224 12.8927 4.74449 10.0523C8.00749 6.46276 12.1428 4.46511 17.0534 3.90328C17.6026 3.84085 18.1519 3.87206 18.6688 3.87206C35.1453 3.87206 51.6219 3.87206 68.0984 3.87206C71.3937 3.87206 74.3982 4.83967 77.209 6.46275C80.6981 8.49161 83.218 11.3008 84.8011 14.8903C85.7057 16.9504 86.2226 19.1041 86.2872 21.3515C86.3841 24.4728 85.8026 27.4693 84.2842 30.2472C81.1827 35.8656 76.3367 39.1742 69.8107 40.1106C69.2938 40.173 68.7768 40.1731 68.2599 40.1731C51.5572 40.1731 34.8222 40.1731 18.1196 40.1731C14.9858 40.1731 12.1105 39.2991 9.42899 37.7696C4.06604 34.6795 0.996883 30.1224 0.156903 24.1294C-0.0779648 22.6545 -0.0342746 21.3959 0.189211 19.8845ZM51.8157 22.0694C51.6542 30.1848 58.8263 37.0517 67.2907 37.0205C75.3998 36.9893 82.7657 30.8091 82.7657 22.0694C82.7657 13.5482 75.7551 7.05581 67.2261 7.08702C58.2771 7.08702 51.6542 14.2036 51.8157 22.0694ZM39.5068 32.0264C38.6668 32.0264 37.7945 32.0888 36.9545 31.9952C36.3084 31.9328 35.6945 31.7767 35.0484 31.6206C32.69 30.9651 31.01 29.5605 30.0731 27.3444C28.9424 24.6289 28.8778 21.8197 29.4593 19.0417C30.1377 15.8579 32.27 14.0164 35.5007 13.3297C37.4714 12.8927 39.5067 12.9551 41.5098 13.1112C42.8667 13.2048 44.2236 13.3921 45.5805 13.6106C46.162 13.7042 46.2266 13.6418 46.2266 13.1112C46.2589 12.3933 46.2266 11.6754 46.2266 10.9263C46.2266 10.0835 46.1943 10.0211 45.2897 9.865C42.5759 9.3968 39.8298 9.1471 37.0514 9.36559C35.1776 9.52166 33.3684 9.77136 31.5916 10.3956C29.7501 11.0511 28.1347 12.0811 26.907 13.5794C25.744 14.984 25.0656 16.5759 24.7102 18.3238C24.161 21.0081 24.2256 23.6925 24.7748 26.3456C25.2271 28.4681 26.0994 30.3721 27.6501 31.964C29.3624 33.7119 31.4946 34.7107 33.8853 35.2413C36.3407 35.8032 38.8606 35.8032 41.3482 35.6783C42.7697 35.6159 44.1913 35.4598 45.5805 35.1477C46.162 35.0229 46.2266 34.9604 46.2266 34.3986C46.2589 33.6807 46.2266 32.9628 46.2266 32.2137C46.2266 31.4021 46.1297 31.3397 45.322 31.4958C43.4159 31.9015 41.4775 32.12 39.5068 32.0264Z" fill="#57D300"/>
<path d="M323 23.0043C322.709 23.7534 322.709 23.7534 321.837 23.7534C316.345 23.7534 310.82 23.7534 305.328 23.7534C304.068 23.7534 303.971 23.847 304.165 25.0956C304.23 25.5638 304.327 26.032 304.456 26.5002C305.005 28.4978 306.297 29.8712 308.236 30.6827C309.431 31.1821 310.691 31.4631 311.983 31.5255C315.02 31.6504 318.025 31.5255 320.997 30.8076C321.708 30.6515 321.772 30.6827 321.772 31.3694C321.772 32.1186 321.772 32.8677 321.772 33.6168C321.772 34.3347 321.708 34.4283 320.965 34.5844C319.576 34.9277 318.186 35.1462 316.765 35.2399C315.376 35.3023 313.986 35.4896 312.597 35.3959C310.465 35.2711 308.365 35.0526 306.394 34.3035C303.325 33.1486 301.257 31.0261 300.191 28.0296C299.61 26.4065 299.351 24.7522 299.287 23.0355C299.222 20.9754 299.351 18.9466 299.901 16.9489C300.644 14.2958 302.13 12.2045 304.65 10.8311C305.91 10.1444 307.331 9.76988 308.753 9.55139C311.176 9.17683 313.599 9.27047 315.989 9.86352C319.899 10.8311 322.418 13.6403 322.871 17.542C322.903 17.698 322.968 17.8853 323 18.0414C323 19.6957 323 21.35 323 23.0043ZM311.24 19.8205C312.339 19.8205 313.469 19.8205 314.568 19.8205C315.634 19.8205 316.7 19.8205 317.734 19.8205C318.38 19.8205 318.509 19.6957 318.445 19.0714C318.38 18.4472 318.283 17.8229 318.089 17.2298C317.411 15.0137 315.893 13.6715 313.502 13.2658C312.242 13.0473 310.982 13.0473 309.722 13.2345C306.136 13.7964 304.488 15.9501 304.1 19.2587C304.036 19.6645 304.165 19.7893 304.617 19.8205C304.811 19.8518 305.037 19.8205 305.231 19.8205C307.267 19.8205 309.237 19.8205 311.24 19.8205Z" fill="#202020"/>
<path d="M175.067 17.1985C175.067 11.861 175.067 6.52356 175.067 1.15489C175.067 3.79532e-06 175.067 0 176.294 0C177.167 0 178.039 0 178.943 0C179.848 0 179.913 0.0624264 179.913 0.936396C179.913 3.74558 179.913 6.52356 179.913 9.33275C179.913 9.52003 179.913 9.73853 179.913 9.92581C179.945 10.4252 180.042 10.5189 180.527 10.3316C181.883 9.83216 183.305 9.55125 184.759 9.42639C187.634 9.17669 190.445 9.42639 193.094 10.5813C195.711 11.705 197.488 13.6714 198.295 16.2933C199.555 20.3198 199.491 24.3775 198.069 28.3728C196.809 31.8063 194.225 33.9288 190.574 34.8027C188.312 35.3646 185.986 35.4894 183.66 35.3333C182.077 35.2085 180.527 35.1461 178.943 34.99C177.877 34.8652 176.811 34.6779 175.745 34.4282C175.131 34.3033 175.099 34.2097 175.067 33.6166C175.067 33.2421 175.067 32.8675 175.067 32.493C175.067 27.4052 175.067 22.3174 175.067 17.1985ZM179.913 22.692C179.913 24.2214 179.913 25.7509 179.913 27.2491C179.913 28.1855 179.913 29.1531 179.913 30.0895C179.913 30.7138 180.01 30.8074 180.623 30.9635C180.753 30.9947 180.882 31.0259 181.011 31.0572C183.143 31.4629 185.308 31.6502 187.473 31.3381C189.185 31.0884 190.703 30.4953 191.931 29.278C192.997 28.2167 193.611 26.9682 193.966 25.5636C194.192 24.6896 194.257 23.7845 194.354 22.9105C194.548 21.2562 194.386 19.6643 193.902 18.1037C193.159 15.7315 191.511 14.2332 188.991 13.7026C186.18 13.1095 183.434 13.4217 180.753 14.3581C179.913 14.639 179.88 14.7326 179.88 15.6378C179.913 17.9788 179.913 20.3198 179.913 22.692Z" fill="#202020"/>
<path d="M165.472 25.8757C165.472 28.5912 165.472 31.3068 165.472 34.0536C165.472 34.2408 165.472 34.4593 165.472 34.6466C165.439 35.2709 165.342 35.3957 164.696 35.3957C164.244 35.4269 163.759 35.3957 163.307 35.3957C162.919 35.3957 162.629 35.2397 162.435 34.8963C162.144 34.3969 161.821 33.9287 161.498 33.4293C161.11 32.8362 161.078 32.8363 160.464 33.1796C158.687 34.2096 156.781 34.8651 154.746 35.1772C152.258 35.5518 149.803 35.4269 147.412 34.6154C144.924 33.7726 143.471 32.0559 142.954 29.5901C142.631 28.0606 142.663 26.5624 143.051 25.0642C143.664 22.8168 145.151 21.3186 147.347 20.4758C148.93 19.8515 150.578 19.5706 152.258 19.5394C154.843 19.477 157.427 19.5394 159.979 19.8827C160.593 19.9764 160.658 19.914 160.658 19.3209C160.658 18.4157 160.755 17.5106 160.529 16.6366C160.27 15.6065 159.721 14.8262 158.784 14.2644C157.783 13.6713 156.652 13.4216 155.489 13.2968C152.355 12.9846 149.254 13.3904 146.217 14.1083C144.892 14.4204 144.892 14.4204 144.892 13.1095C144.892 12.5477 144.892 11.9546 144.892 11.3928C144.924 10.7685 144.957 10.6749 145.603 10.4876C147.154 10.0506 148.704 9.76967 150.32 9.58239C153.001 9.27026 155.683 9.33268 158.332 9.83209C159.559 10.0818 160.722 10.4564 161.821 11.0494C163.662 12.0482 164.825 13.5153 165.245 15.5441C165.407 16.3245 165.504 17.1048 165.504 17.9163C165.439 20.5382 165.472 23.2226 165.472 25.8757ZM160.626 26.4688C160.626 25.8133 160.626 25.1578 160.626 24.5335C160.626 23.8468 160.593 23.8156 159.915 23.6908C159.656 23.6596 159.398 23.6283 159.139 23.5971C158.299 23.4723 157.459 23.4723 156.587 23.3786C154.81 23.2226 153.033 23.1913 151.257 23.4723C148.995 23.8156 147.767 25.0017 147.509 27.0306C147.38 27.9982 147.574 28.9346 148.09 29.7773C148.769 30.9634 149.932 31.4004 151.257 31.4941C152.097 31.5565 152.969 31.5565 153.809 31.4941C156.07 31.338 158.138 30.6513 160.044 29.4652C160.464 29.2155 160.658 28.9034 160.626 28.404C160.626 27.7797 160.626 27.1242 160.626 26.4688Z" fill="#202020"/>
<path d="M96.0116 12.5165C96.7547 12.0483 97.4008 11.5176 98.1762 11.1431C101.891 9.17665 105.768 8.8021 109.774 10.1755C112.456 11.0807 113.974 13.0471 114.653 15.669C114.879 16.6054 115.008 17.5418 115.008 18.4782C115.008 23.8157 115.008 29.1531 115.008 34.4906C115.008 35.3333 114.943 35.3958 114.103 35.3958C113.102 35.3958 112.1 35.3958 111.067 35.3958C110.291 35.3958 110.194 35.3021 110.162 34.5218C110.162 33.086 110.162 31.619 110.162 30.1831C110.162 26.3751 110.162 22.5359 110.162 18.7279C110.162 17.7291 110.033 16.7927 109.581 15.8875C109.031 14.795 108.191 14.0459 106.996 13.6714C104.767 12.9535 102.57 13.2032 100.405 14.0771C99.3392 14.5141 98.4023 15.1384 97.4977 15.7939C96.8839 16.2308 96.6255 16.7303 96.6255 17.4794C96.6578 20.6631 96.6578 23.8157 96.6578 26.9994C96.6578 29.4028 96.6578 31.8062 96.6578 34.1785C96.6578 34.3657 96.6578 34.5842 96.6578 34.7715C96.6255 35.2709 96.5285 35.3958 96.0116 35.427C94.8163 35.4582 93.6209 35.4582 92.4579 35.427C91.9733 35.427 91.9086 35.3021 91.8763 34.8339C91.8763 34.6466 91.8763 34.4906 91.8763 34.3033C91.8763 26.3751 91.8763 18.4782 91.8763 10.55C91.8763 9.36394 91.8763 9.36394 93.1363 9.36394C93.524 9.36394 93.9117 9.36394 94.2994 9.36394C95.0747 9.36394 95.1393 9.42636 95.3009 10.1131C95.4624 10.7061 95.6239 11.3304 95.7855 11.9234C95.7532 12.1107 95.7855 12.298 96.0116 12.5165Z" fill="#202020"/>
<path d="M262.618 29.2778C263.006 28.5911 263.2 27.8732 263.458 27.1553C265.623 21.4745 267.755 15.7625 269.887 10.0504C270.146 9.36374 270.178 9.33252 270.954 9.33252C272.117 9.33252 273.28 9.33252 274.443 9.33252C275.25 9.33252 275.315 9.45738 275.024 10.1753C274.023 12.5475 273.021 14.9509 272.02 17.3231C270.146 21.7554 268.272 26.1877 266.431 30.6512C265.849 32.0245 265.268 33.3667 264.718 34.7401C264.525 35.2395 264.201 35.4268 263.685 35.4268C262.748 35.3956 261.811 35.4268 260.906 35.4268C260.066 35.4268 260.002 35.3956 259.711 34.6465C258.515 31.65 257.352 28.6847 256.157 25.6883C254.477 21.412 252.765 17.1046 251.085 12.8284C250.729 11.892 250.342 10.9556 249.986 10.0192C249.793 9.48859 249.89 9.36373 250.439 9.36373C251.731 9.33252 253.023 9.36373 254.316 9.36373C254.768 9.36373 254.994 9.58223 255.156 9.988C255.672 11.3614 256.222 12.766 256.739 14.1394C258.58 19.0086 260.422 23.8779 262.263 28.7784C262.295 28.9344 262.328 29.1217 262.618 29.2778Z" fill="#202020"/>
<path d="M124.668 17.6357C124.668 13.8276 124.668 10.0508 124.668 6.24282C124.668 5.11914 124.668 5.11914 125.831 5.11914C126.251 5.11914 126.671 5.11914 127.059 5.11914C127.479 5.11914 127.705 5.30643 127.802 5.7122C128.028 6.6486 128.254 7.55378 128.48 8.49017C128.674 9.30172 128.706 9.30171 129.579 9.33293C131.323 9.33293 133.1 9.33293 134.845 9.33293C135.039 9.33293 135.265 9.33293 135.458 9.33293C135.782 9.33293 135.943 9.52021 135.943 9.80112C135.943 10.7375 135.943 11.6427 135.943 12.5791C135.943 12.9537 135.685 13.0785 135.329 13.0785C134.554 13.0785 133.779 13.0785 133.003 13.0785C132.099 13.0785 131.194 13.0785 130.289 13.0785C129.514 13.0785 129.449 13.141 129.449 13.8901C129.449 16.949 129.449 20.0391 129.449 23.098C129.449 24.7523 129.449 26.4066 129.449 28.0297C129.449 28.5915 129.514 29.1221 129.676 29.6527C130.031 30.7452 130.903 31.4007 132.066 31.4631C133.035 31.4943 133.972 31.4631 134.942 31.4943C135.846 31.4943 135.943 31.588 135.943 32.4307C135.943 33.1798 135.943 33.929 135.943 34.6781C135.911 35.2087 135.814 35.3648 135.265 35.3648C133.455 35.3648 131.646 35.4896 129.837 35.2399C127.253 34.8966 125.573 33.4295 124.926 30.9949C124.733 30.2458 124.603 29.4967 124.636 28.6851C124.7 25.0332 124.7 21.35 124.668 17.6357Z" fill="#202020"/>
<path d="M228.115 17.6667C228.115 23.1915 228.115 28.7474 228.115 34.2722C228.115 35.3958 228.115 35.3958 226.952 35.3958C225.982 35.3958 225.046 35.3958 224.076 35.3958C223.366 35.3958 223.301 35.3022 223.269 34.6155C223.269 34.4594 223.269 34.3034 223.269 34.1785C223.269 23.2227 223.269 12.2668 223.269 1.31099C223.269 0.0312519 223.269 0.03125 224.561 0.03125C225.498 0.03125 226.435 0.03125 227.339 0.03125C227.953 0.03125 228.05 0.124886 228.05 0.74915C228.05 0.967643 228.05 1.18614 228.05 1.43584C228.115 6.83573 228.115 12.2668 228.115 17.6667Z" fill="#202020"/>
<path d="M281.13 22.3799C281.13 18.447 281.13 14.4829 281.13 10.5501C281.13 9.39519 281.163 9.36397 282.326 9.36397C282.778 9.36397 283.198 9.36397 283.65 9.36397C284.393 9.36397 284.458 9.4264 284.652 10.1443C284.813 10.7374 284.943 11.3616 285.104 11.9547C285.233 12.4853 285.33 12.5165 285.783 12.2044C286.203 11.9235 286.59 11.5801 287.01 11.2992C288.723 10.1443 290.661 9.58246 292.729 9.36397C292.858 9.36397 292.987 9.33276 293.116 9.36397C293.698 9.36397 293.795 9.45761 293.827 10.0194C293.859 10.8622 293.859 11.705 293.827 12.5789C293.827 13.172 293.73 13.2344 293.084 13.2656C291.21 13.4217 289.433 13.8587 287.85 14.9199C287.269 15.2945 286.784 15.7939 286.299 16.2621C286.073 16.4806 285.976 16.6991 285.976 17.0112C285.976 17.2609 285.976 17.5106 285.976 17.7603C285.976 23.2539 285.976 28.7474 285.976 34.2409C285.976 35.427 285.976 35.427 284.716 35.427C283.78 35.427 282.843 35.427 281.938 35.427C281.292 35.427 281.163 35.3022 281.163 34.6779C281.13 33.2109 281.163 31.7438 281.163 30.2456C281.13 27.6237 281.13 25.0018 281.13 22.3799Z" fill="#202020"/>
<path d="M208.084 22.3172C208.084 18.4468 208.084 14.5764 208.084 10.7059C208.084 10.5811 208.084 10.4562 208.084 10.3313C208.084 9.36374 208.117 9.33252 209.118 9.33252C210.12 9.33252 211.121 9.33252 212.123 9.33252C212.769 9.33252 212.833 9.42616 212.866 10.0192C212.866 10.2065 212.866 10.3626 212.866 10.5498C212.866 18.4156 212.866 26.2501 212.866 34.1158C212.866 35.3956 212.866 35.3956 211.541 35.3956C210.701 35.3956 209.829 35.3956 208.989 35.3956C208.117 35.3956 208.052 35.3332 208.052 34.4904C208.052 31.4003 208.052 28.3102 208.052 25.2201C208.084 24.2837 208.084 23.3161 208.084 22.3172Z" fill="#202020"/>
<path d="M243.331 22.3802C243.331 26.3131 243.331 30.2147 243.331 34.1476C243.331 34.3349 243.331 34.5534 243.331 34.7407C243.299 35.3025 243.234 35.3961 242.653 35.4274C241.522 35.4586 240.391 35.4586 239.228 35.4274C238.647 35.4274 238.55 35.3025 238.518 34.7719C238.485 34.5846 238.518 34.3661 238.518 34.1788C238.518 26.3443 238.518 18.5098 238.518 10.6753C238.518 9.39551 238.518 9.39551 239.842 9.39551C240.682 9.39551 241.554 9.39551 242.394 9.39551C243.267 9.39551 243.331 9.45793 243.331 10.3007C243.331 13.0787 243.331 15.8566 243.331 18.6034C243.331 19.8207 243.331 21.1005 243.331 22.3802Z" fill="#202020"/>
<path d="M240.876 0.0312151C241.457 0.0312151 242.007 0.0312151 242.588 0.0312151C243.234 0.0624282 243.331 0.124853 243.331 0.780329C243.331 1.74794 243.331 2.71555 243.331 3.68316C243.331 4.245 243.234 4.36984 242.653 4.36984C241.49 4.40106 240.327 4.40106 239.164 4.36984C238.647 4.36984 238.518 4.24499 238.518 3.74558C238.485 2.68433 238.518 1.59188 238.518 0.530628C238.518 0.15607 238.679 0 239.099 0C239.681 0.0312132 240.262 0.0312151 240.876 0.0312151Z" fill="#202020"/>
<path d="M210.475 4.4011C209.893 4.4011 209.28 4.43232 208.698 4.4011C208.214 4.36989 208.084 4.27625 208.084 3.80805C208.052 2.7468 208.084 1.65433 208.084 0.593084C208.084 0.218526 208.278 0.03125 208.666 0.03125C209.893 0.03125 211.089 0.03125 212.317 0.03125C212.704 0.03125 212.898 0.218533 212.898 0.561879C212.898 1.62313 212.898 2.71559 212.898 3.77684C212.898 4.18261 212.672 4.36989 212.284 4.36989C211.67 4.4011 211.089 4.4011 210.475 4.4011Z" fill="#202020"/>
</svg>
